<svg xmlns="http://www.w3.org/2000/svg" viewBox="0 0 512 512">

  <rect width="512" height="512" rx="112" fill="#0f1f17"/>

  <rect y="360" width="512" height="152" rx="0" fill="#1a3328"/>
  <rect y="420" width="512" height="92" rx="0" fill="#1a3328"/>
  <rect width="512" height="512" rx="112" fill="none"/>

  <clipPath id="c">
    <rect width="512" height="512" rx="112"/>
  </clipPath>
  <rect y="370" width="512" height="142" fill="#1a3328" clip-path="url(#c)"/>

  <circle cx="256" cy="210" r="140" fill="#6FAF8E" opacity="0.08"/>
  <circle cx="256" cy="210" r="100" fill="#6FAF8E" opacity="0.10"/>

  <path
    d="M174 148
       L174 210
       L202 210
       L202 174
       L310 174
       L310 210
       L338 210
       L338 148
       Z"
    fill="#6FAF8E"
  />

  <path
    d="M154 210
       L358 210
       L344 318
       L168 318
       Z"
    fill="#6FAF8E"
  />

  <rect x="154" y="210" width="204" height="14" rx="7" fill="#4d9470"/>

  <circle cx="200" cy="334" r="22" fill="#0f1f17"/>
  <circle cx="312" cy="334" r="22" fill="#0f1f17"/>

  <circle cx="200" cy="334" r="10" fill="#6FAF8E" opacity="0.5"/>
  <circle cx="312" cy="334" r="10" fill="#6FAF8E" opacity="0.5"/>

  <text
    x="256" y="430"
    text-anchor="middle"
    font-family="system-ui, -apple-system, sans-serif"
    font-size="40"
    font-weight="800"
    letter-spacing="8"
    fill="#6FAF8E"
  >NEOMART</text>

</svg>
